Coordinates
version=1
nRows=29
nColumns=22
inDegrees=yes

Units are S.I. units (second, meters, Newtons, ...)
If the header above contains a line with 'inDegrees', this indicates whether rotational values are in degrees (yes) or radians (no).

endheader
time	pelvis_tilt	pelvis_list	pelvis_rotation	pelvis_tx	pelvis_ty	pelvis_tz	hip_flexion_r	hip_adduction_r	hip_rotation_r	knee_angle_r	ankle_angle_r	subtalar_angle_r	hip_flexion_l	hip_adduction_l	hip_rotation_l	knee_angle_l	ankle_angle_l	subtalar_angle_l	lumbar_extension	lumbar_bending	lumbar_rotation
      0.01000000	    -10.24516875	      3.34813111	    -36.26550667	     -0.97050600	      0.88163937	     -0.39663719	      9.42498626	      2.59310948	     -0.76599943	     -5.51876199	     11.43072290	     -3.54041360	      7.44734675	     -3.02575463	     -1.82913196	     -5.87274928	     14.03755687	      0.74182701	      4.69755077	      1.96604293	     10.23126802
      0.02000000	    -10.23370729	      3.34652081	    -36.29072569	     -0.97056743	      0.88165249	     -0.39676289	      9.42350082	      2.58461261	     -0.76753679	     -5.51816768	     11.43068651	     -3.54096443	      7.44595402	     -3.01633928	     -1.82484630	     -5.88176749	     14.03705751	      0.74196773	      4.70655183	      1.98585674	     10.22464630
      0.03000000	    -10.21045313	      3.33793117	    -36.32687035	     -0.97069198	      0.88168835	     -0.39691482	      9.41321004	      2.57660282	     -0.72808890	     -5.51876676	     11.41902569	     -3.54127029	      7.45128849	     -3.00796372	     -1.84320091	     -5.92750434	     14.04876028	      0.73533157	      4.69513096	      2.00723623	     10.19813276
      0.04000000	    -10.19471774	      3.32777421	    -36.38183890	     -0.97082655	      0.88171660	     -0.39703181	      9.38994318	      2.57914064	     -0.67926616	     -5.48025226	     11.39387596	     -3.53993696	      7.45957905	     -3.00968321	     -1.89024539	     -5.97634076	     14.08276023	      0.71909416	      4.69771329	      2.03678394	     10.20835789
      0.05000000	    -10.17975454	      3.32454302	    -36.41678276	     -0.97091747	      0.88173600	     -0.39719797	      9.38716593	      2.56886890	     -0.68081113	     -5.47744754	     11.39172351	     -3.54025204	      7.45688640	     -2.99919792	     -1.88500042	     -5.98684984	     14.08265534	      0.71868982	      4.71427901	      2.06405879	     10.20257434
      0.06000000	    -10.16670549	      3.31084026	    -36.48341686	     -0.97109170	      0.88177296	     -0.39732172	      9.36307760	      2.57754567	     -0.58708396	     -5.43386967	     11.33805116	     -3.53405538	      7.46733942	     -3.00778554	     -1.94312172	     -6.03694413	     14.11165280	      0.69637828	      4.71911995	      2.10226647	     10.20768780
      0.07000000	    -10.15161065	      3.30845642	    -36.52431182	     -0.97123091	      0.88179839	     -0.39747069	      9.36167176	      2.57055856	     -0.59197089	     -5.42650753	     11.33657891	     -3.53420565	      7.46576608	     -3.00015178	     -1.93796143	     -6.04726219	     14.11169109	      0.69572617	      4.73497910	      2.12356709	     10.20292115
      0.08000000	    -10.14608970	      3.30163606	    -36.59594079	     -0.97142248	      0.88182388	     -0.39755824	      9.33558034	      2.58166945	     -0.50136673	     -5.35541914	     11.27428065	     -3.52463342	      7.48415180	     -3.00997325	     -2.02130655	     -6.09378848	     14.13873819	      0.66870134	      4.75561848	      2.15413861	     10.23153289
      0.09000000	    -10.13149559	      3.29879268	    -36.63297789	     -0.97158586	      0.88185075	     -0.39770756	      9.33631850	      2.57578491	     -0.50460222	     -5.35024708	     11.27235211	     -3.52461998	      7.48381381	     -3.00346579	     -2.01616433	     -6.10169285	     14.13852735	      0.66807106	      4.76815240	      2.17229248	     10.22545189
      0.10000000	    -10.12770427	      3.29718962	    -36.69426852	     -0.97180135	      0.88187299	     -0.39781475	      9.33532137	      2.58226448	     -0.42907361	     -5.31637059	     11.21645804	     -3.51494135	      7.49981023	     -3.00865851	     -2.08061648	     -6.12587190	     14.14842762	      0.64637322	      4.78755551	      2.19631195	     10.22898491
      0.11000000	    -10.11512326	      3.29470949	    -36.72723038	     -0.97198928	      0.88189537	     -0.39795711	      9.33809636	      2.57904546	     -0.43289234	     -5.30894567	     11.21550223	     -3.51465702	      7.50210195	     -3.00395641	     -2.07707581	     -6.13195417	     14.14788638	      0.64554886	      4.79695904	      2.20925082	     10.22506562
      0.12000000	    -10.12178349	      3.30166185	    -36.78661097	     -0.97223563	      0.88189592	     -0.39806477	      9.35659014	      2.58623152	     -0.36443404	     -5.28027161	     11.16763185	     -3.50051686	      7.53598180	     -3.00950848	     -2.14434210	     -6.15922039	     14.15220398	      0.61994864	      4.82574242	      2.22644996	     10.24799791
      0.13000000	    -10.10985839	      3.29911064	    -36.81432811	     -0.97243088	      0.88191557	     -0.39821021	      9.36212950	      2.58358149	     -0.36647967	     -5.27658234	     11.16637582	     -3.50021738	      7.53859109	     -3.00532060	     -2.14239117	     -6.16248050	     14.15146999	      0.61943479	      4.83181666	      2.23694294	     10.23801352
      0.14000000	    -10.11492619	      3.30868857	    -36.85666477	     -0.97267787	      0.88191458	     -0.39834923	      9.39996952	      2.58491076	     -0.32084616	     -5.28552740	     11.13399946	     -3.48855544	      7.57673686	     -3.00518071	     -2.19668994	     -6.18914324	     14.14227253	      0.60242026	      4.85617511	      2.24793726	     10.22649118
      0.15000000	    -10.10388337	      3.30565275	    -36.87995325	     -0.97287266	      0.88193457	     -0.39849838	      9.40680954	      2.58298028	     -0.32232283	     -5.28262787	     11.13307374	     -3.48831078	      7.57987195	     -3.00212831	     -2.19482296	     -6.19099227	     14.14229223	      0.60214245	      4.85993229	      2.25509153	     10.21640699
      0.16000000	    -10.09360866	      3.30431473	    -36.90272360	     -0.97307359	      0.88195922	     -0.39864989	      9.42579462	      2.57993639	     -0.30104724	     -5.30170368	     11.11662539	     -3.48564559	      7.58873804	     -2.99827563	     -2.21431718	     -6.19820941	     14.13815893	      0.59836526	      4.86465210	      2.26083301	     10.17678604
      0.17000000	    -10.09519282	      3.31522316	    -36.92884796	     -0.97327577	      0.88195883	     -0.39881223	      9.46305788	      2.57348508	     -0.28130370	     -5.31686170	     11.10042932	     -3.47830329	      7.62666346	     -2.99087745	     -2.25201424	     -6.22766456	     14.12906546	      0.58753829	      4.88904343	      2.26320226	     10.17659410
      0.18000000	    -10.08415335	      3.30930806	    -36.94361907	     -0.97342971	      0.88198816	     -0.39894342	      9.46624793	      2.57285748	     -0.28112308	     -5.31792549	     11.09900547	     -3.47815193	      7.62643705	     -2.98995601	     -2.25046524	     -6.23036430	     14.12856145	      0.58743592	      4.89855534	      2.26465852	     10.16771705
      0.19000000	    -10.07114158	      3.30447547	    -36.95379551	     -0.97358919	      0.88202176	     -0.39909837	      9.47930276	      2.56778142	     -0.26618015	     -5.33803354	     11.08437903	     -3.47705268	      7.62712426	     -2.98509178	     -2.26239646	     -6.23145131	     14.12217048	      0.58633572	      4.90293631	      2.26526904	     10.12999326
      0.20000000	    -10.05999278	      3.29641773	    -36.96077637	     -0.97371069	      0.88205360	     -0.39923404	      9.48058481	      2.56614852	     -0.26491789	     -5.34251382	     11.08136172	     -3.47691305	      7.62538411	     -2.98341366	     -2.26309461	     -6.23497465	     14.11933903	      0.58629205	      4.91605859	      2.26538823	     10.12364942
      0.21000000	    -10.04526966	      3.29029176	    -36.96852682	     -0.97386283	      0.88209331	     -0.39938797	      9.49394672	      2.56035488	     -0.25332321	     -5.36790467	     11.06290761	     -3.47611296	      7.62286294	     -2.97785256	     -2.27795980	     -6.23331855	     14.10369167	      0.58629956	      4.91952281	      2.26097642	     10.08853071
      0.22000000	    -10.03096030	      3.28325196	    -36.97529361	     -0.97400269	      0.88213231	     -0.39952828	      9.50422385	      2.55624484	     -0.24752085	     -5.38951991	     11.05185190	     -3.47544825	      7.61748635	     -2.97373399	     -2.28800438	     -6.23035444	     14.08734586	      0.58716794	      4.92711873	      2.25456127	     10.07135103
      0.23000000	    -10.01630230	      3.27438682	    -36.98392715	     -0.97414839	      0.88216965	     -0.39966862	      9.51511391	      2.55376261	     -0.23925099	     -5.41406078	     11.04347870	     -3.47481981	      7.60866809	     -2.97103854	     -2.29764125	     -6.22330523	     14.07345363	      0.58840115	      4.93194501	      2.24791075	     10.05407298
      0.24000000	    -10.00014670	      3.26387051	    -36.99544218	     -0.97430307	      0.88220974	     -0.39981021	      9.52784296	      2.55211361	     -0.22857962	     -5.44512731	     11.03604160	     -3.47416349	      7.59610618	     -2.96947124	     -2.30946055	     -6.21296656	     14.05903880	      0.58986975	      4.93226855	      2.24131792	     10.03732814
      0.25000000	     -9.98243971	      3.25183804	    -37.01076076	     -0.97446757	      0.88225213	     -0.39994854	      9.54214718	      2.55198970	     -0.21609047	     -5.48199105	     11.03047984	     -3.47342038	      7.57943609	     -2.96896232	     -2.32380434	     -6.19971205	     14.04494394	      0.59143604	      4.92839687	      2.23486717	     10.02249029
      0.26000000	     -9.96307164	      3.23758447	    -37.02916370	     -0.97463211	      0.88229446	     -0.40008834	      9.55732100	      2.55256834	     -0.20215458	     -5.52557638	     11.02794874	     -3.47249707	      7.55731079	     -2.96916974	     -2.34170346	     -6.18243847	     14.03087398	      0.59323837	      4.92030006	      2.22929671	     10.01153414
      0.27000000	     -9.94262370	      3.22143091	    -37.05075600	     -0.97479990	      0.88233564	     -0.40022619	      9.57234862	      2.55483479	     -0.18845806	     -5.57254600	     11.02789418	     -3.47142467	      7.53061906	     -2.97063167	     -2.36157159	     -6.16089574	     14.01825343	      0.59529033	      4.90833396	      2.22486148	     10.00174376
      0.28000000	     -9.91988796	      3.20234552	    -37.07299325	     -0.97495957	      0.88237802	     -0.40035476	      9.58455454	      2.55895675	     -0.17697946	     -5.62314465	     11.03240870	     -3.47019673	      7.49549873	     -2.97320148	     -2.38362660	     -6.13329572	     14.00498752	      0.59827424	      4.89400236	      2.22219512	      9.99884292
      0.29000000	     -9.89896754	      3.18289927	    -37.09614327	     -0.97512455	      0.88241418	     -0.40048739	      9.59552814	      2.56434136	     -0.16761692	     -5.66770977	     11.03533849	     -3.46936672	      7.46092728	     -2.97763576	     -2.40259488	     -6.10285888	     13.99509198	      0.60155217	      4.87838371	      2.22159110	      9.99063433
